<svg width="331" height="143" viewBox="0 0 331 143" fill="none" xmlns="http://www.w3.org/2000/svg">
<path d="M326.688 105.376V142.35H322.356L302.208 113.32H301.846V142.35H297.369V105.376H301.702L321.922 134.479H322.283V105.376H326.688Z" fill="#1A1A1A"/>
<path d="M289.841 123.863C289.841 127.763 289.137 131.133 287.729 133.974C286.321 136.814 284.389 139.005 281.934 140.545C279.479 142.086 276.674 142.856 273.521 142.856C270.367 142.856 267.563 142.086 265.108 140.545C262.652 139.005 260.721 136.814 259.312 133.974C257.904 131.133 257.2 127.763 257.2 123.863C257.2 119.964 257.904 116.594 259.312 113.753C260.721 110.913 262.652 108.722 265.108 107.182C267.563 105.641 270.367 104.871 273.521 104.871C276.674 104.871 279.479 105.641 281.934 107.182C284.389 108.722 286.321 110.913 287.729 113.753C289.137 116.594 289.841 119.964 289.841 123.863ZM285.508 123.863C285.508 120.662 284.973 117.96 283.902 115.757C282.843 113.555 281.404 111.888 279.587 110.756C277.781 109.625 275.759 109.059 273.521 109.059C271.282 109.059 269.254 109.625 267.437 110.756C265.631 111.888 264.193 113.555 263.122 115.757C262.063 117.96 261.533 120.662 261.533 123.863C261.533 127.065 262.063 129.767 263.122 131.97C264.193 134.172 265.631 135.839 267.437 136.971C269.254 138.102 271.282 138.668 273.521 138.668C275.759 138.668 277.781 138.102 279.587 136.971C281.404 135.839 282.843 134.172 283.902 131.97C284.973 129.767 285.508 127.065 285.508 123.863Z" fill="#1A1A1A"/>
<path d="M249.668 105.376V142.35H245.19V105.376H249.668Z" fill="#1A1A1A"/>
<path d="M210.55 109.348V105.376H238.28V109.348H226.654V142.35H222.176V109.348H210.55Z" fill="#1A1A1A"/>
<path d="M184.05 142.35H179.356L192.933 105.376H197.555L211.131 142.35H206.437L195.388 111.225H195.099L184.05 142.35ZM185.784 127.907H204.704V131.879H185.784V127.907Z" fill="#1A1A1A"/>
<path d="M159.14 142.35H147.73V105.376H159.646C163.233 105.376 166.302 106.116 168.853 107.597C171.405 109.065 173.361 111.177 174.721 113.933C176.081 116.678 176.761 119.963 176.761 123.791C176.761 127.642 176.075 130.958 174.703 133.738C173.331 136.507 171.333 138.637 168.709 140.129C166.085 141.61 162.896 142.35 159.14 142.35ZM152.208 138.378H158.852C161.909 138.378 164.442 137.789 166.452 136.609C168.462 135.43 169.961 133.751 170.948 131.572C171.935 129.394 172.428 126.8 172.428 123.791C172.428 120.806 171.941 118.236 170.966 116.082C169.991 113.915 168.534 112.254 166.597 111.099C164.659 109.932 162.246 109.348 159.357 109.348H152.208V138.378Z" fill="#1A1A1A"/>
<path d="M138.772 105.376V142.35H134.44L114.292 113.32H113.93V142.35H109.453V105.376H113.786L134.006 134.479H134.367V105.376H138.772Z" fill="#1A1A1A"/>
<path d="M96.0348 105.376H100.512V129.857C100.512 132.384 99.9163 134.641 98.7248 136.627C97.5453 138.601 95.8783 140.16 93.7239 141.303C91.5695 142.434 89.0419 143 86.1413 143C83.2407 143 80.7131 142.434 78.5587 141.303C76.4043 140.16 74.7313 138.601 73.5398 136.627C72.3603 134.641 71.7705 132.384 71.7705 129.857V105.376H76.2478V129.496C76.2478 131.301 76.645 132.908 77.4394 134.316C78.2338 135.712 79.3651 136.814 80.8335 137.62C82.3139 138.414 84.0832 138.812 86.1413 138.812C88.1994 138.812 89.9687 138.414 91.4491 137.62C92.9295 136.814 94.0609 135.712 94.8432 134.316C95.6376 132.908 96.0348 131.301 96.0348 129.496V105.376Z" fill="#1A1A1A"/>
<path d="M64.2408 123.863C64.2408 127.763 63.5367 131.133 62.1285 133.974C60.7203 136.814 58.7886 139.005 56.3333 140.545C53.878 142.086 51.0736 142.856 47.9202 142.856C44.7668 142.856 41.9625 142.086 39.5072 140.545C37.0518 139.005 35.1201 136.814 33.7119 133.974C32.3037 131.133 31.5996 127.763 31.5996 123.863C31.5996 119.964 32.3037 116.594 33.7119 113.753C35.1201 110.913 37.0518 108.722 39.5072 107.182C41.9625 105.641 44.7668 104.871 47.9202 104.871C51.0736 104.871 53.878 105.641 56.3333 107.182C58.7886 108.722 60.7203 110.913 62.1285 113.753C63.5367 116.594 64.2408 119.964 64.2408 123.863ZM59.9079 123.863C59.9079 120.662 59.3723 117.96 58.3011 115.757C57.242 113.555 55.8037 111.888 53.9863 110.756C52.1809 109.625 50.1589 109.059 47.9202 109.059C45.6815 109.059 43.6535 109.625 41.8361 110.756C40.0307 111.888 38.5924 113.555 37.5212 115.757C36.4621 117.96 35.9325 120.662 35.9325 123.863C35.9325 127.065 36.4621 129.767 37.5212 131.97C38.5924 134.172 40.0307 135.839 41.8361 136.971C43.6535 138.102 45.6815 138.668 47.9202 138.668C50.1589 138.668 52.1809 138.102 53.9863 136.971C55.8037 135.839 57.242 134.172 58.3011 131.97C59.3723 129.767 59.9079 127.065 59.9079 123.863Z" fill="#1A1A1A"/>
<path d="M3.20605 142.35V105.376H25.3761V109.348H7.68339V121.841H23.7151V125.813H7.68339V142.35H3.20605Z" fill="#1A1A1A"/>
<path d="M311.827 34.3088C306.88 34.3088 304.836 36.4599 304.836 39.2562C304.836 42.6979 307.31 44.9564 316.022 47.8603C325.164 50.8718 330.219 55.604 330.219 63.8855C330.219 73.35 322.69 80.771 307.74 80.771C302.148 80.771 296.017 79.9106 292.468 78.62L291.393 77.5445C291.608 72.4896 291.715 67.6498 291.5 62.5949L294.189 62.2722C296.125 67.5422 297.738 69.8008 299.244 71.4141C301.717 73.9953 305.374 75.3935 308.816 75.3935C314.193 75.3935 316.99 73.7802 316.99 70.1235C316.99 66.5743 315.054 64.3157 306.557 61.6269C296.663 58.4004 291.93 52.9152 291.93 45.3866C291.93 35.9221 299.136 28.9313 313.548 28.9313C318.173 28.9313 322.045 29.5766 326.562 31.0823L327.637 32.1578C327.422 35.5995 327.422 38.826 327.422 46.7848L324.734 46.9999C323.013 42.4828 321.399 40.0091 320.109 38.5033C318.28 36.3523 315.592 34.3088 311.827 34.3088Z" fill="#1A1A1A"/>
<path d="M246.683 80.7711C238.079 80.7711 227.324 74.8557 227.324 56.1418C227.324 36.8901 239.8 28.9313 251.416 28.9313C256.256 28.9313 261.31 30.1144 265.182 32.2654C265.182 23.6613 265.182 17.4233 264.86 10.2174C264.752 7.52859 264.214 6.88329 261.956 6.13043L259.59 5.37756V2.68878C264.967 2.25858 273.571 1.39816 279.809 0L280.885 1.07551C280.347 8.06635 280.24 25.9199 280.24 36.5675C280.24 46.7848 280.347 59.1532 280.67 72.8123C280.67 74.2104 281.315 75.286 282.713 75.7162L286.155 76.6841L285.832 79.3729C285.832 79.3729 282.606 78.9427 275.185 78.8352C270.13 78.8352 268.086 79.0502 265.72 79.2654L264.645 78.1898C264.752 76.2539 264.86 74.4255 264.752 72.7047L262.278 74.5331C257.869 77.7596 253.674 80.7711 246.683 80.7711ZM254.212 72.0594C257.439 72.0594 260.127 70.7688 262.278 67.4347C264.429 64.1006 264.967 60.5514 264.967 56.0343V47.9679C264.967 39.9016 261.741 35.3844 255.503 35.3844C248.619 35.3844 244.532 40.6544 244.532 54.6361C244.532 67.3271 248.512 72.0594 254.212 72.0594Z" fill="#1A1A1A"/>
<path d="M164.164 79.3729L163.842 76.6841L165.885 75.7161C167.606 74.9633 168.359 73.8877 168.574 71.199C169.112 65.6063 169.219 59.5834 169.219 52.0548C169.219 47.1075 169.112 43.1281 168.897 39.1487C168.789 36.4599 168.251 35.4919 165.993 34.9541L164.164 34.4164V31.7276C169.542 31.2974 174.382 30.437 181.588 29.0388L182.663 30.1143C182.556 32.9107 182.556 34.9541 182.663 37.5354L186.75 34.8466C189.654 32.9107 197.505 28.9313 203.743 28.9313C212.025 28.9313 217.295 33.6635 217.295 41.0846C217.295 46.5697 217.08 50.1189 217.08 55.2814C217.08 60.6589 217.187 65.6063 217.51 72.8122C217.51 74.2104 218.155 75.1784 219.553 75.7161L221.92 76.6841L221.597 79.3729C221.597 79.3729 217.725 79.0502 208.691 79.0502C201.377 79.0502 196.968 79.3729 196.968 79.3729L196.645 76.6841L198.688 75.7161C200.409 74.9633 201.162 73.8877 201.377 71.199C201.915 65.6063 202.023 59.5834 202.023 52.0548C202.023 43.7734 202.13 40.8695 199.764 39.0411C198.904 38.3958 197.505 37.6429 195.139 37.6429C190.73 37.6429 186.643 40.7619 185.245 44.3111C184.492 46.247 184.277 48.6132 184.277 55.3889C184.277 60.5514 184.384 65.6063 184.707 72.8122C184.707 74.2104 185.352 75.1784 186.75 75.7161L189.116 76.6841L188.794 79.3729C188.794 79.3729 184.922 79.0502 176.963 79.0502C168.574 79.0502 164.164 79.3729 164.164 79.3729Z" fill="#1A1A1A"/>
<path d="M122.653 80.3408C115.663 80.3408 111.253 74.8557 111.253 67.112C111.253 59.9061 116.738 55.4965 126.955 52.8077L137.818 49.9038C139.324 49.4736 139.646 48.8283 139.646 46.4622C139.646 40.3317 136.635 38.1807 131.257 38.1807C125.342 38.1807 120.395 41.2997 116.308 44.2036L113.942 40.977L115.34 39.5789C120.825 34.0937 125.665 28.9313 137.926 28.9313C147.928 28.9313 155.349 33.4484 155.349 45.8168C155.349 50.334 154.919 56.1418 154.919 61.6269C154.919 65.7138 155.134 68.1875 155.349 72.8122C155.457 74.2104 155.887 75.2859 157.392 75.7161L160.834 76.6841L160.511 79.3729C160.511 79.3729 155.349 78.9427 150.402 79.0502L141.152 79.2653L140.077 78.1898C140.184 76.6841 140.184 73.7802 140.184 72.2745L136.958 74.7482C131.58 78.7276 127.816 80.3408 122.653 80.3408ZM131.903 70.9839C133.946 70.9839 135.99 70.0159 137.065 68.9404C139.109 66.8969 139.646 65.8214 139.646 62.3798V54.4209L133.193 56.4644C128.246 58.0777 126.418 61.4118 126.418 64.6383C126.418 69.1555 128.461 70.9839 131.903 70.9839Z" fill="#1A1A1A"/>
<path d="M69.3226 79.3728L69 76.684L71.0435 75.716C72.7643 74.9632 73.5172 73.8877 73.7323 71.1989C74.27 65.6062 74.3776 59.5833 74.3776 52.0547C74.3776 47.1074 74.27 43.128 74.0549 39.1486C73.9474 36.4598 73.4096 35.4918 71.151 34.9541L69.3226 34.4163V31.7275C74.7002 31.2973 79.54 30.4369 86.746 29.0387L87.8215 30.1142C87.7139 32.9106 87.7139 35.1692 87.8215 42.5902L92.1235 37.7504C97.5011 31.62 102.233 29.0387 108.794 29.684L109.87 30.7595C109.439 34.8465 109.332 40.8694 109.439 48.5055L106.751 48.8282C105.998 46.8923 105.245 44.6337 104.169 43.5582C102.879 42.16 101.588 41.4071 99.8672 41.4071C96.4256 41.4071 93.7368 43.3431 92.2311 45.279C90.0801 47.9678 89.4348 51.517 89.4348 57.7549C89.4348 61.8419 89.4348 64.7458 89.6499 71.9517C89.6499 73.3499 90.1876 74.533 91.6933 74.8556L99.6521 76.684L99.3295 79.3728C99.3295 79.3728 90.0801 79.0501 82.1213 79.0501C73.7323 79.0501 69.3226 79.3728 69.3226 79.3728Z" fill="#1A1A1A"/>
<path d="M0.322654 79.3731L0 76.6843L3.01144 75.3937C4.73226 74.6408 5.59267 73.888 5.80777 71.1992C6.23798 65.6065 6.45308 55.8193 6.45308 46.2473C6.45308 36.5676 6.34553 24.737 5.80777 19.1443C5.59267 16.4555 4.73226 15.7027 3.01144 14.9498L0 13.6592L0.322654 10.9704C0.322654 10.9704 6.88329 11.2931 14.7345 11.2931C27.5332 11.2931 33.8787 10.7553 39.2563 10.7553C53.5606 10.7553 61.6269 16.6706 61.6269 27.2107C61.6269 36.245 52.4851 41.2999 46.7849 42.5905C55.8192 43.3434 64.8535 50.0116 64.8535 59.4761C64.8535 72.4898 54.6361 79.0504 35.492 79.0504H14.7345C6.88329 79.0504 0.322654 79.3731 0.322654 79.3731ZM32.8032 73.1351C40.762 73.1351 45.4942 68.5104 45.4942 60.229C45.4942 52.055 40.9771 47.4303 33.3409 47.3228L25.167 47.2152C23.984 47.2152 23.6613 47.8605 23.6613 49.2587C23.6613 57.7553 23.7689 64.2084 23.984 69.801C24.0915 71.1992 24.7368 72.2747 26.2425 72.7049C27.3181 73.0276 30.6521 73.1351 32.8032 73.1351ZM29.0389 41.4075C37.8581 41.4075 42.8055 36.9978 42.8055 29.039C42.8055 21.0802 39.2563 16.6706 32.8032 16.6706H27.5332C25.2746 16.6706 24.0915 17.8537 23.984 20.2198C23.7689 27.1031 23.6613 36.0299 23.6613 39.2564C23.6613 40.0093 23.8764 40.8697 25.167 41.0848C26.4576 41.2999 27.8558 41.4075 29.0389 41.4075Z" fill="#1A1A1A"/>
</svg>
